<?xml version="1.0" encoding="UTF-8"?>
<!-- Generator: Adobe Illustrator 12.0.0, SVG Export Plug-In  -->
<!DOCTYPE svg PUBLIC "-//W3C//DTD SVG 1.1//EN" "http://www.w3.org/Graphics/SVG/1.1/DTD/svg11.dtd" [
	<!ENTITY ns_flows "http://ns.adobe.com/Flows/1.0/">
	<!ENTITY ns_svg "http://www.w3.org/2000/svg">
	<!ENTITY ns_xlink "http://www.w3.org/1999/xlink">
]>
<svg version="1.1" xmlns="http://www.w3.org/2000/svg" xmlns:xlink="http://www.w3.org/1999/xlink" xmlns:a="http://ns.adobe.com/AdobeSVGViewerExtensions/3.0/" width="501" height="501" viewBox="-0.3779297 -0.3779297 501 501" enable-background="new -0.3779297 -0.3779297 501 501" xml:space="preserve">
<defs>
</defs>
<polygon opacity="0" fill-rule="evenodd" clip-rule="evenodd" fill="#FFFFFF" points="0,0 500,0 500,500 0,500 0,0 "/>
<path fill-rule="evenodd" clip-rule="evenodd" d="M250,22.0585938c32.7539063,0,62.3183594,8.5864258,89.7373047,28.6196289  c27.5097656,19.940918,62.59375,28.25,105.2451172,24.8339844C453.7519531,268.0947266,388.6679688,402.2373047,250,477.9414063  C111.3334961,402.2373047,46.246582,268.0947266,55.0175781,75.512207  c42.6523438,3.4160156,77.7353516-4.8930664,105.2451172-24.8339844C187.6831055,30.6450195,217.2460938,22.0585938,250,22.0585938  L250,22.0585938z"/>
<path fill-rule="evenodd" clip-rule="evenodd" fill="#FFFFFF" d="M164.8959961,57.0175781l-0.0253906,0.0175781  C137.7001953,76.7294922,103.3125,85.7158203,62.5854492,83.8359375c-0.2939453,8.4165039-0.487793,16.7597656-0.487793,24.9570313  c0,80.5341797,14.1503906,150.4960938,42.1875,208.3378906C135.3125,381.1494141,184.3530273,432.1699219,250,468.9101563  c65.6464844-36.7402344,114.6884766-87.7607422,145.7177734-151.7792969  c28.0341797-57.8417969,42.1845703-127.8037109,42.1845703-208.3378906c0-8.1972656-0.1953125-16.5405273-0.4863281-24.9570313  c-40.7285156,1.8798828-75.1162109-7.1064453-102.2871094-26.8007813C310.1396484,38.7763672,282.3007813,29.9091797,250,29.9091797  C217.6982422,29.9091797,189.8603516,38.7763672,164.8959961,57.0175781L164.8959961,57.0175781z"/>
<path fill-rule="evenodd" clip-rule="evenodd" d="M178.0175781,74.9775391l-0.0922852,0.0673828  c-25.9902344,18.8388672-57.3989258,29.199707-93.5683594,30.9755859c-0.0053711,0.9243164-0.0141602,1.8740234-0.0141602,2.7724609  c0,77.1000977,13.4433594,143.9296875,39.9594727,198.6357422C151.5424805,363.6328125,193.7993164,409.2421875,250,443.1738281  c56.2001953-33.9316406,98.4589844-79.5410156,125.6982422-135.7451172  c26.5166016-54.7060547,39.9599609-121.5356445,39.9599609-198.6357422c0-0.8984375-0.0097656-1.8481445-0.0146484-2.7724609  c-36.1708984-1.7758789-67.5771484-12.1367188-93.5703125-30.9755859C300.9697266,59.6254883,277.4160156,52.1538086,250,52.1538086  C222.5834961,52.1538086,199.0380859,59.6191406,178.0175781,74.9775391L178.0175781,74.9775391z"/>
<polygon fill-rule="evenodd" clip-rule="evenodd" fill="#FFFFFF" points="250,87.7270508 219.1650391,182.1708984   119.9199219,182.1708984 200.2387695,240.6108398 169.4023438,335.4257813 250,276.7099609 330.3193359,335.4257813   299.4824219,240.6108398 380.0800781,182.1708984 280.5576172,182.1708984 250,87.7270508 "/>
</svg>