<?xml version="1.0" ?><!DOCTYPE svg  PUBLIC '-//W3C//DTD SVG 1.0//EN'  'http://www.w3.org/TR/2001/REC-SVG-20010904/DTD/svg10.dtd'><svg height="16px" id="icon" style="enable-background:new 0 0 160 160;" version="1.0" viewBox="0 0 160 160" width="16px" xml:space="preserve" xmlns="http://www.w3.org/2000/svg" xmlns:xlink="http://www.w3.org/1999/xlink"><path d="M102.095,98.691c-2.625,4.743-5.58,9.289-8.895,13.709c-0.786,1.048-1.987,1.6-3.203,1.6  c-0.835,0-1.677-0.26-2.397-0.8c-1.768-1.326-2.125-3.833-0.8-5.6c12.249-16.331,23.606-38.416,24.178-88.6H49.022  c0.572,50.185,11.929,72.269,24.178,88.6c1.325,1.767,0.967,4.274-0.8,5.6c-1.766,1.325-4.274,0.968-5.6-0.8  c-3.315-4.42-6.27-8.966-8.895-13.709C37.371,97.598,21,80.55,21,59.749c0-5.169,0.996-10.192,2.961-14.929  c1.968-4.746,4.815-9.001,8.462-12.648c1.563-1.562,4.095-1.562,5.657,0c1.562,1.562,1.562,4.095,0,5.657  c-2.901,2.901-5.165,6.284-6.729,10.055C29.791,51.645,29,55.637,29,59.749c0,14.903,10.572,27.38,24.61,30.334  C44.799,70.372,41,46.884,41,15c0-2.209,1.791-4,4-4h70c2.209,0,4,1.791,4,4c0,31.884-3.799,55.372-12.61,75.083  C120.428,87.129,131,74.651,131,59.749c0-4.112-0.791-8.104-2.351-11.864c-1.563-3.772-3.827-7.155-6.729-10.055  c-1.562-1.562-1.563-4.095,0-5.657c1.562-1.562,4.094-1.563,5.657,0c3.648,3.647,6.496,7.902,8.463,12.648  c1.964,4.736,2.961,9.759,2.961,14.929C139,80.55,122.629,97.598,102.095,98.691z M51,145c0,2.209,1.791,4,4,4h50  c2.209,0,4-1.791,4-4s-1.791-4-4-4H55C52.791,141,51,142.791,51,145z M95,129c2.209,0,4-1.791,4-4s-1.791-4-4-4H65  c-2.209,0-4,1.791-4,4s1.791,4,4,4H95z" id="cup"/></svg>