<?xml version="1.0" ?><!DOCTYPE svg  PUBLIC '-//W3C//DTD SVG 1.0//EN'  'http://www.w3.org/TR/2001/REC-SVG-20010904/DTD/svg10.dtd'><svg enable-background="new 0 0 24 24" id="Layer_1" version="1.0" viewBox="0 0 24 24" xml:space="preserve" xmlns="http://www.w3.org/2000/svg" xmlns:xlink="http://www.w3.org/1999/xlink"><circle cx="17" cy="4" r="2"/><path d="M4,16c0,0,2.9,0,4.5,0c0.6,0,1.2-0.3,1.6-0.8  l0.3-0.4" fill="none" stroke="#000000" stroke-miterlimit="10" stroke-width="2"/><path d="M7,8c0,0,2.1-1,3.2-1.6c0.5-0.2,1-0.3,1.5-0.1  L13,6.7l1.7,0.8c0.4,0.2,0.7,0.5,0.9,0.9l0.8,1.6c0.3,0.7,1,1.1,1.8,1.1c1.2,0,2.9,0,2.9,0" fill="none" stroke="#000000" stroke-miterlimit="10" stroke-width="2"/><path d="M12.7,7l-2.4,4.2c-0.5,0.9-0.3,2,0.5,2.7l3.9,2.8l-1.2-2.9c0,0-0.8,0.1-0.6-0.2l2.9-5.2L12.7,7z"/><path d="M13.9,17L12,22h2.1l1.7-4.3c0.4-1.1,0.2-2.4-0.7-3.2l-2.4-2.4l-1.4,1.4l2.4,2.4C14,16.2,14.1,16.6,13.9,17z"/></svg>