<?xml version="1.0" encoding="iso-8859-1"?>
<!-- Generator: Adobe Illustrator 16.0.0, SVG Export Plug-In . SVG Version: 6.00 Build 0)  -->
<!DOCTYPE svg PUBLIC "-//W3C//DTD SVG 1.1//EN" "http://www.w3.org/Graphics/SVG/1.1/DTD/svg11.dtd">
<svg version="1.1" id="Capa_1" xmlns="http://www.w3.org/2000/svg" xmlns:xlink="http://www.w3.org/1999/xlink" x="0px" y="0px"
	 width="980px" height="980px" viewBox="0 0 980 980" style="enable-background:new 0 0 980 980;" xml:space="preserve">
<g>
	<g>
		<path d="M965,414.558h-65.112V264.632c0-5.219-4.23-9.45-9.45-9.45H89.561c-5.219,0-9.45,4.231-9.45,9.45v149.927H15
			c-8.284,0-15,6.716-15,15v190.872c0,8.284,6.716,15,15,15h65.112v79.938c0,5.219,4.231,9.449,9.45,9.449h800.877
			c5.219,0,9.449-4.23,9.449-9.449v-79.938H965c8.284,0,15-6.716,15-15V429.558C980,421.273,973.284,414.558,965,414.558z
			 M80.112,605.43H30V444.558h50.112V605.43z M720.971,282.739h38.704v8.24h-14.418v40.464h-9.834v-40.464h-14.451L720.971,282.739
			L720.971,282.739z M675.257,282.739h9.834v26.378c0,4.186,0.121,6.899,0.366,8.139c0.42,1.993,1.423,3.594,3.007,4.8
			c1.583,1.208,3.748,1.811,6.495,1.811c2.791,0,4.896-0.57,6.313-1.71c1.417-1.141,2.27-2.542,2.558-4.203
			c0.288-1.661,0.432-4.419,0.432-8.273v-26.942h9.834v25.581c0,5.847-0.266,9.978-0.797,12.391
			c-0.531,2.415-1.512,4.452-2.939,6.113c-1.43,1.661-3.34,2.985-5.731,3.97c-2.392,0.985-5.515,1.478-9.369,1.478
			c-4.65,0-8.179-0.537-10.581-1.611c-2.402-1.074-4.302-2.469-5.697-4.186c-1.396-1.716-2.314-3.516-2.759-5.399
			c-0.643-2.791-0.963-6.91-0.963-12.359v-25.978H675.257z M622.634,294.899c1.107-2.48,2.618-4.706,4.535-6.678
			c1.916-1.971,4.014-3.433,6.296-4.385c3.034-1.284,6.533-1.927,10.498-1.927c7.176,0,12.918,2.226,17.227,6.678
			c4.307,4.451,6.461,10.642,6.461,18.571c0,7.863-2.139,14.015-6.412,18.455c-4.275,4.441-9.989,6.661-17.143,6.661
			c-7.242,0-13.001-2.209-17.274-6.628c-4.275-4.418-6.412-10.503-6.412-18.255C620.408,302.429,621.15,298.265,622.634,294.899z
			 M281.872,281.695h9.568l19.933,32.525v-32.525h9.136v48.704h-9.867l-19.634-31.76v31.76h-9.136V281.695z M262.57,281.695h9.834
			v48.704h-9.834V281.695z M475,695.121H117.952c-4.849,0-8.78-3.696-8.78-8.256V635.43v-30V444.558v-30v-51.436
			c0-4.56,3.931-8.255,8.78-8.255H475V695.121z M870.828,414.558v30V605.43v30v51.436c0,4.56-3.932,8.256-8.78,8.256H505V354.868
			h357.048c4.849,0,8.78,3.695,8.78,8.255V414.558z M950,605.43h-50.112V444.558H950V605.43z"/>
		<path d="M644.062,323.868c3.92,0,7.137-1.412,9.65-4.236c2.514-2.823,3.771-7.06,3.771-12.707c0-5.581-1.225-9.745-3.672-12.491
			s-5.696-4.119-9.75-4.119c-4.055,0-7.32,1.39-9.802,4.169c-2.48,2.78-3.721,6.971-3.721,12.574c0,5.515,1.272,9.696,3.82,12.542
			C636.908,322.446,640.142,323.868,644.062,323.868z"/>
		<path d="M160.223,484.098c9.824-5.751,18.902-12.519,27.232-20.308v171.023h45.381V397.093h-36.821
			c-5.168,14.429-14.696,27.051-28.585,37.871c-2.434,1.896-4.836,3.68-7.207,5.363c-10.632,7.546-20.632,12.944-30,16.202
			c-0.464,0.161-0.93,0.327-1.391,0.479v41.182c0.467-0.153,0.926-0.32,1.391-0.479
			C140.894,494.088,150.898,489.556,160.223,484.098z"/>
		<path d="M377.375,638.852c22.933,0,40.803-8.075,53.617-24.225c15.504-19.594,23.255-51.785,23.255-96.574
			c0-44.896-7.699-77.034-23.094-96.413c-12.92-16.364-30.847-24.547-53.778-24.547s-40.805,8.075-53.617,24.225
			c-15.504,19.597-23.255,51.679-23.255,96.251c0,45.437,7.051,77.009,21.156,94.718
			C335.762,629.998,354.334,638.852,377.375,638.852z M352.666,458.784c2.367-9.044,5.705-15.314,10.013-18.814
			c4.306-3.497,9.205-5.249,14.696-5.249s10.361,1.751,14.616,5.249c4.252,3.5,7.776,10.444,10.578,20.833
			c2.799,10.391,4.198,29.473,4.198,57.251c0,27.777-1.562,47.479-4.684,59.107c-2.37,9.044-5.708,15.316-10.013,18.813
			c-4.308,3.5-9.205,5.249-14.696,5.249s-10.363-1.721-14.615-5.168c-4.255-3.444-7.778-10.361-10.578-20.752
			c-2.801-10.389-4.198-29.473-4.198-57.25C347.982,490.275,349.542,470.52,352.666,458.784z"/>
		<path d="M726.625,506.99c10.336-4.522,18.355-11.062,24.062-19.622c5.705-8.56,8.56-18.33,8.56-29.312
			c0-17.656-6.218-32.244-18.653-43.766c-12.435-11.52-29.903-17.28-52.404-17.28c-22.719,0-40.24,5.761-52.567,17.28
			c-12.329,11.521-18.491,26.108-18.491,43.766c0,10.336,2.665,19.838,7.994,28.504c5.33,8.668,13.861,15.479,25.597,20.429
			c-13.674,5.814-23.686,14.078-30.038,24.79c-6.354,10.715-9.527,22.477-9.527,35.287c0,23.255,8.45,41.561,25.354,54.908
			c14.317,11.305,32.244,16.957,53.778,16.957c23.146,0,41.69-6.836,55.636-20.51c13.941-13.672,20.913-31.437,20.913-53.294
			c0-13.243-3.419-24.923-10.255-35.045C749.745,519.966,739.76,512.267,726.625,506.99z M667.841,440.776
			c5.168-5.168,12.112-7.752,20.833-7.752c8.398,0,15.153,2.56,20.269,7.671c5.111,5.115,7.671,11.927,7.671,20.43
			c0,9.044-2.584,16.124-7.752,21.236c-5.168,5.115-12.061,7.672-20.672,7.672c-8.507,0-15.317-2.528-20.43-7.591
			c-5.115-5.06-7.671-12.111-7.671-21.155C660.089,452.783,662.673,445.944,667.841,440.776z M712.737,592.341
			c-6.138,6.729-13.889,10.093-23.255,10.093c-9.584,0-17.578-3.497-23.982-10.497c-6.406-6.997-9.609-16.739-9.609-29.23
			c0-8.936,2.719-17.225,8.156-24.87c5.436-7.644,13.699-11.466,24.79-11.466c9.581,0,17.494,3.365,23.74,10.094
			c6.243,6.729,9.367,15.64,9.367,26.727C721.942,575.896,718.874,585.613,712.737,592.341z"/>
	</g>
</g>
<g>
</g>
<g>
</g>
<g>
</g>
<g>
</g>
<g>
</g>
<g>
</g>
<g>
</g>
<g>
</g>
<g>
</g>
<g>
</g>
<g>
</g>
<g>
</g>
<g>
</g>
<g>
</g>
<g>
</g>
</svg>
