<?xml version="1.0" ?><svg height="32" id="svg4917" version="1.1" width="32" xmlns="http://www.w3.org/2000/svg" xmlns:cc="http://creativecommons.org/ns#" xmlns:dc="http://purl.org/dc/elements/1.1/" xmlns:inkscape="http://www.inkscape.org/namespaces/inkscape" xmlns:rdf="http://www.w3.org/1999/02/22-rdf-syntax-ns#" xmlns:sodipodi="http://sodipodi.sourceforge.net/DTD/sodipodi-0.dtd" xmlns:svg="http://www.w3.org/2000/svg"><defs id="defs4919"/><g id="layer1" transform="translate(0,-1020.3622)"><path d="m 0.34405775,1028.3653 a 0.50005,0.50005 0 0 0 -0.34375000086,0.5 l 0,15 a 0.50005,0.50005 0 0 0 0.50000000086,0.5 l 31.00000025,0 a 0.50005,0.50005 0 0 0 0.5,-0.5 l 0,-15 a 0.50005,0.50005 0 0 0 -0.5,-0.5 l -31.00000025,0 a 0.50005,0.50005 0 0 0 -0.15625,0 z m 0.65624995,1 8,0 0,14 -8,0 0,-14 z m 9.0000003,0 5.5,0 0,0.2188 1,0 0,-0.2188 5.5,0 0,14 -5.5,0 0,-0.7812 -1,0 0,0.7812 -5.5,0 0,-14 z m 13,0 8,0 0,14 -8,0 0,-14 z m -7.5,1.2188 0,1 1,0 0,-1 -1,0 z m 0,2 0,1 1,0 0,-1 -1,0 z m 0,2 0,1 1,0 0,-1 -1,0 z m 0,2 0,1 1,0 0,-1 -1,0 z m 0,2 0,1 1,0 0,-1 -1,0 z m 0,2 0,1 1,0 0,-1 -1,0 z" id="rect4391-68" style="font-size:medium;font-style:normal;font-variant:normal;font-weight:normal;font-stretch:normal;text-indent:0;text-align:start;text-decoration:none;line-height:normal;letter-spacing:normal;word-spacing:normal;text-transform:none;direction:ltr;block-progression:tb;writing-mode:lr-tb;text-anchor:start;baseline-shift:baseline;color:#000000;fill:#000000;fill-opacity:1;stroke:none;stroke-width:1;marker:none;visibility:visible;display:inline;overflow:visible;enable-background:accumulate;font-family:Sans;-inkscape-font-specification:Sans"/></g></svg>