<?xml version="1.0" encoding="iso-8859-1"?>
<!-- Generator: Adobe Illustrator 16.0.0, SVG Export Plug-In . SVG Version: 6.00 Build 0)  -->
<!DOCTYPE svg PUBLIC "-//W3C//DTD SVG 1.1//EN" "http://www.w3.org/Graphics/SVG/1.1/DTD/svg11.dtd">
<svg version="1.1" id="Capa_1" xmlns="http://www.w3.org/2000/svg" xmlns:xlink="http://www.w3.org/1999/xlink" x="0px" y="0px"
	 width="519.961px" height="519.96px" viewBox="0 0 519.961 519.96" style="enable-background:new 0 0 519.961 519.96;"
	 xml:space="preserve">
<g>
	<g>
		<path d="M15.185,456.815c8.367,0,15.166-6.789,15.166-15.176v-119.13h456.714c0.938,0,1.779-0.325,2.524-0.774v119.904
			c0,8.386,6.8,15.176,15.186,15.176c8.387,0,15.186-6.789,15.186-15.176V78.321c0-8.386-6.799-15.175-15.186-15.175H15.185
			C6.799,63.146,0,69.935,0,78.321v363.318C0,450.026,6.799,456.815,15.185,456.815z M449.657,93.507h39.933v65.58
			c-0.745-0.45-1.587-0.774-2.524-0.774h-37.408V93.507z M449.657,168.429h37.408c0.938,0,1.779-0.325,2.524-0.774v62.281
			c-0.745-0.45-1.587-0.775-2.524-0.775h-37.408V168.429z M449.657,311.713v-72.445h37.408c0.938,0,1.779-0.325,2.524-0.775v74.665
			c-0.745-0.45-1.587-0.775-2.524-0.775h-37.542C449.562,312.153,449.657,311.953,449.657,311.713z M376.294,93.507h63.246v64.805
			h-63.236V93.507H376.294z M376.294,168.429h63.246v60.731h-63.236v-60.731H376.294z M376.294,311.713v-72.445h63.246v72.445
			c0,0.239,0.115,0.439,0.134,0.669H376.17C376.188,312.153,376.294,311.953,376.294,311.713z M156.156,311.713v-72.445h34.109
			c-2.333-3.356-4.686-6.35-5.977-7.603l-2.563-2.515h-25.57v-60.731h50.26l-2.429-10.117h-47.832V93.497h63.256v9.763
			c3.528,0.067,6.98,0.985,10.126,2.611V93.497h23.944c2.238-0.813,4.628-1.329,7.134-1.329h3.452c2.524,0,4.934,0.497,7.191,1.329
			h21.534v9.974c3.003-1.97,6.503-3.146,10.127-3.452v-6.531h63.256v64.805h-7.621c-0.469,1.932-1.119,3.825-2.133,5.604
			l-2.601,4.523h12.345v60.731h-36.815c-0.335,3.251-0.822,6.646-1.415,10.117h38.23v72.445c0,0.239,0.096,0.439,0.134,0.669
			h-63.523c0.02-0.229,0.134-0.43,0.134-0.669v-13.904c-2.572,3.051-5.795,5.557-9.429,6.972c-0.2,0.076-0.487,0.162-0.688,0.239
			v6.703c0,0.239,0.096,0.439,0.134,0.669h-63.523c0.019-0.229,0.134-0.43,0.134-0.669v-20.54c-0.956-2.563-1.511-5.27-1.511-8.042
			v-3.452c0.038,0.162-0.411-0.632-0.65-0.938c-2.237-1.979-4.992-4.437-7.956-7.21v40.172c0,0.239,0.115,0.439,0.134,0.669h-63.524
			C156.06,312.153,156.156,311.953,156.156,311.713z M82.773,93.507h63.256v64.805H82.773V93.507z M82.773,168.429h63.256v60.731
			H82.773V168.429z M82.773,311.713v-72.445h63.256v72.445c0,0.239,0.115,0.439,0.134,0.669H82.639
			C82.677,312.153,82.773,311.953,82.773,311.713z M30.351,93.507h42.324v64.805H30.351V93.507z M30.351,168.429h42.324v60.731
			H30.351V168.429z M30.351,239.268h42.324v72.445c0,0.239,0.096,0.439,0.134,0.669H30.351V239.268z"/>
		<path d="M237.121,268.281c2.859,2.524,5.231,7.593,5.231,11.408v3.452c0,3.806,2.897,7.975,6.579,8.969
			c5.078,1.368,12.585,2.907,20.579,2.907c7.679,0,14.286-1.874,18.771-3.614c3.567-1.377,6.292-5.977,6.369-9.706
			c0.096-3.729,2.706-8.539,5.25-11.37c14.028-15.51,15.931-44.303,16.026-57.47c0.02-3.806,1.396-9.572,3.289-12.881l24.768-43.213
			c1.884-3.309,0.956-7.841-2.095-10.126l-1.252-0.938c-3.041-2.285-7.249-1.587-9.391,1.559l-27.378,40.067
			c-2.151,3.146-4.522,5.173-5.326,4.542c-0.784-0.631-0.631-4.131,0.335-7.812l15.73-59.374c0.976-3.682-1.157-7.698-4.743-8.979
			l-3.194-1.138c-3.586-1.272-7.468,0.622-8.683,4.236l-19.383,58.198c-1.195,3.615-2.955,6.35-3.901,6.11s-1.817-3.519-1.903-7.325
			l-1.645-62.376c-0.115-3.806-3.271-6.895-7.076-6.895h-3.452c-3.806,0-6.961,3.089-7.057,6.895l-1.454,62.386
			c-0.077,3.806-0.65,6.828-1.291,6.751c-0.641-0.076-2.257-3.021-3.643-6.579l-20.617-53.521c-1.368-3.557-5.47-5.671-9.171-4.733
			l-1.291,0.325c-3.682,0.946-5.958,4.705-5.059,8.405l15.443,64.193c0.899,3.701,0.43,9.562-0.564,13.244
			c-0.239,0.861-0.449,1.693-0.631,2.486c-0.861,3.71-4.112,5.747-7.717,4.466l-3.882-1.396c-3.586-1.282-8.033-5.021-10.461-7.956
			c-9.821-11.867-19.756-9.381-25.704-6.005c-3.309,1.884-3.271,6.33-0.545,8.989l17.298,16.935
			c2.725,2.668,6.331,7.593,8.482,10.739C211.646,245.091,228.582,260.736,237.121,268.281z"/>
	</g>
</g>
<g>
</g>
<g>
</g>
<g>
</g>
<g>
</g>
<g>
</g>
<g>
</g>
<g>
</g>
<g>
</g>
<g>
</g>
<g>
</g>
<g>
</g>
<g>
</g>
<g>
</g>
<g>
</g>
<g>
</g>
</svg>
