<?xml version="1.0" encoding="utf-8"?>
<!-- Generator: Adobe Illustrator 13.0.0, SVG Export Plug-In . SVG Version: 6.00 Build 14948)  -->
<!DOCTYPE svg PUBLIC "-//W3C//DTD SVG 1.1//EN" "http://www.w3.org/Graphics/SVG/1.1/DTD/svg11.dtd" [
	<!ENTITY ns_flows "http://ns.adobe.com/Flows/1.0/">
	<!ENTITY ns_extend "http://ns.adobe.com/Extensibility/1.0/">
	<!ENTITY ns_ai "http://ns.adobe.com/AdobeIllustrator/10.0/">
	<!ENTITY ns_graphs "http://ns.adobe.com/Graphs/1.0/">
	<!ENTITY ns_vars "http://ns.adobe.com/Variables/1.0/">
	<!ENTITY ns_imrep "http://ns.adobe.com/ImageReplacement/1.0/">
	<!ENTITY ns_sfw "http://ns.adobe.com/SaveForWeb/1.0/">
	<!ENTITY ns_custom "http://ns.adobe.com/GenericCustomNamespace/1.0/">
	<!ENTITY ns_adobe_xpath "http://ns.adobe.com/XPath/1.0/">
]>
<svg version="1.1"
	 xmlns:x="&ns_extend;" xmlns:i="&ns_ai;" xmlns:graph="&ns_graphs;" i:viewOrigin="156.5 545.5" i:rulerOrigin="0 0" i:pageBounds="0 792 612 0"
	 xmlns="http://www.w3.org/2000/svg" xmlns:xlink="http://www.w3.org/1999/xlink" xmlns:a="http://ns.adobe.com/AdobeSVGViewerExtensions/3.0/"
	 x="0px" y="0px" width="300px" height="300px" viewBox="0 0 300 300" enable-background="new 0 0 300 300" xml:space="preserve">
<metadata><?xpacket begin="   " id="W5M0MpCehiHzreSzNTczkc9d"?>
<x:xmpmeta xmlns:x="adobe:ns:meta/" x:xmptk="Adobe XMP Core 4.1-c036 46.277092, Fri Feb 23 2007 14:17:08        ">
   <rdf:RDF xmlns:rdf="http://www.w3.org/1999/02/22-rdf-syntax-ns#">
      <rdf:Description rdf:about=""
            xmlns:dc="http://purl.org/dc/elements/1.1/">
         <dc:format>image/svg+xml</dc:format>
      </rdf:Description>
      <rdf:Description rdf:about=""
            xmlns:xap="http://ns.adobe.com/xap/1.0/"
            xmlns:xapGImg="http://ns.adobe.com/xap/1.0/g/img/">
         <xap:MetadataDate>2008-01-04T02:54:27-08:00</xap:MetadataDate>
         <xap:ModifyDate>2008-01-04T02:54:27-08:00</xap:ModifyDate>
         <xap:CreateDate>2008-01-04T00:57:38-08:00</xap:CreateDate>
         <xap:CreatorTool>Adobe Illustrator CS3</xap:CreatorTool>
         <xap:Thumbnails>
            <rdf:Alt>
               <rdf:li rdf:parseType="Resource">
                  <xapGImg:width>256</xapGImg:width>
                  <xapGImg:height>224</xapGImg:height>
                  <xapGImg:format>JPEG</xapGImg:format>
                  <xapGImg:image>/9j/4AAQSkZJRgABAgEASABIAAD/7QAsUGhvdG9zaG9wIDMuMAA4QklNA+0AAAAAABAASAAAAAEA&#xA;AQBIAAAAAQAB/+4ADkFkb2JlAGTAAAAAAf/bAIQABgQEBAUEBgUFBgkGBQYJCwgGBggLDAoKCwoK&#xA;DBAMDAwMDAwQDA4PEA8ODBMTFBQTExwbGxscHx8fHx8fHx8fHwEHBwcNDA0YEBAYGhURFRofHx8f&#xA;Hx8fHx8fHx8fHx8fHx8fHx8fHx8fHx8fHx8fHx8fHx8fHx8fHx8fHx8fHx8f/8AAEQgA4AEAAwER&#xA;AAIRAQMRAf/EAaIAAAAHAQEBAQEAAAAAAAAAAAQFAwIGAQAHCAkKCwEAAgIDAQEBAQEAAAAAAAAA&#xA;AQACAwQFBgcICQoLEAACAQMDAgQCBgcDBAIGAnMBAgMRBAAFIRIxQVEGE2EicYEUMpGhBxWxQiPB&#xA;UtHhMxZi8CRygvElQzRTkqKyY3PCNUQnk6OzNhdUZHTD0uIIJoMJChgZhJRFRqS0VtNVKBry4/PE&#xA;1OT0ZXWFlaW1xdXl9WZ2hpamtsbW5vY3R1dnd4eXp7fH1+f3OEhYaHiImKi4yNjo+Ck5SVlpeYmZ&#xA;qbnJ2en5KjpKWmp6ipqqusra6voRAAICAQIDBQUEBQYECAMDbQEAAhEDBCESMUEFURNhIgZxgZEy&#xA;obHwFMHR4SNCFVJicvEzJDRDghaSUyWiY7LCB3PSNeJEgxdUkwgJChgZJjZFGidkdFU38qOzwygp&#xA;0+PzhJSktMTU5PRldYWVpbXF1eX1RlZmdoaWprbG1ub2R1dnd4eXp7fH1+f3OEhYaHiImKi4yNjo&#xA;+DlJWWl5iZmpucnZ6fkqOkpaanqKmqq6ytrq+v/aAAwDAQACEQMRAD8A9U4q7FXYq7FXYq7FXYq7&#xA;FXg/5+/85KW/keaTy35ZSK98z8f9Knk+KGyDrVeSinOWhqFrQftV6Yq+Q/NP5gedfNVy0/mHWrvU&#xA;GYkiOWQ+ktd6JCtI0HsqjFUosdS1HT51uLC6mtJ1IKzQSNE4I3BDIQcVe9flH/zln5n0O7h03zvK&#xA;+taGx4/XyOV9b1P2i23rr4hvi8G24lV9lWF/Z6hZW99YzJc2d1Gs1tcRkMjxuOSspHUEHFVfFXYq&#xA;7FXYq7FXYq7FXYq7FXYq7FXYq7FXYq7FXYq7FXYq7FXYq7FXYq7FXYq7FXYqx38xfNieUfI2teY2&#xA;UO2m2ryQIdw0x+CFTuNjIyg4q/NW/v7zUL64v72Vp7u6kea4mc1Z5JGLMxPiScVQ+KuxV2KvsH/n&#xA;DDz5c6hoGqeTr2UyNo7LdabyqSLediJYwf5Ul+If6/3KvpPFXYq7FXYq7FXYql2seZPLuioH1nVL&#xA;PTUYFla8nigBA6msjLirHW/OX8sF0W81v/ENq2lWLLHPdrzZDI4JWOIhf3r0UnjHyOKvINf/AOc2&#xA;/KtrcPHofl271OJdhPczJZhjXqoVblqU8QD7YqiPLX/Oavkm+uEh1/RrzRlcgG5idb2JK03fisMl&#xA;B/kox9sVe+aJruj67pcGq6PeRX+nXK8oLmBg6MOh3HQg7EHcHriqOxV2KuxV2KuxV2KuxV2KuxV2&#xA;KuxV2KuxV2KuxV5h/wA5M201x+R3miOEVdY7aQ0/kivIZH/4VTir8+sVdirsVdir6L/5wlsbl/Pu&#xA;vX6hvq0GlehKR9n1J7iJ46+9IXp9OKvsnFXYql2ueZPL+gWhvNb1K20y13pNdSpCpoKkLzI5H2G+&#xA;KvIPNf8Azl7+Vej+pFpRutfuk2X6rH6UBNdwZpuBp7qjYq8h8zf85pefb71I9B0uy0eFj8EsnK7n&#xA;Uf6zenF/yTxVf5c0D/nKb80iLm81q/0nRbmha7uJG0+3ZDuPTt7cRtINtvg4+/fFXsHlb/nGv8r/&#xA;ACbZ3Gu+aGbzJeWcb3V5qOqCtuiQqXdhbVdKBVqfUL4q+bb+483/AJ6fmVDpWjwraaZEXXSrAAR2&#xA;mnWCt8UjKgCg9C5AqzUUfsjFX075Q/5xW/KXQbBI7/Tzr1/T99e3zvRiRvwhRljRa9Ni3+UcVQXn&#xA;z/nE38tNesJToNufLurBawT27PJbsw6CWB2I4/6nE/PpirwD8q/PHmn8lPzPn8ueYeUWkyXC22u2&#xA;RYmJQ1BHeRH/ACVIetPiTbwoq+7AQwBBqDuCOhGKuxV2KuxV2KuxV2KuxV2KuxV2KuxV2KuxV2Ko&#xA;bU9Os9T027029jE1lewyW11EejxSqUdTTxViMVfnL+an5a61+X3m260TUEZrYsZNMvaEJcW5Pwup&#xA;6ch0cdmxVh2KuxVVtra4uriK2tonmuJnWOGGNSzu7GiqqjcknoMVfef5D/l9Y/lX+XRn8xXMFhqe&#xA;pMt3rFxcSpFHD8NIoDI5VP3a1r/lFu1MVS3zp/zlx+V+g84NIebzHersFtF9O3DVOzTygV6dUVhi&#xA;rwbzn/zlv+aWvB4NKeDy7ZNUcbNedwQT+1PLyIPvGqYq8hvtR13XtS9e+ubnVNSuGp6kzyXEzse1&#xA;WLMcVexfl9/ziV+YvmP0rvXQvlrTHoSboc7xl/ybYEFTt/u1lPscVfTP5ef849/lp5I9K4s9PGo6&#xA;vHRv0pf0mlVgBvEtBHFvuCq8vc4q9KxV5n/zkrfT2X5IeaZoDR3ht4Cf8i4u4YXH0pIcVeW/84Qa&#xA;VZDSfNGrcQb157e15EfEsSI0lAadGZ99+wxV9PYq7FXx7/zm5pdnD5t8u6nGoW7vLKWG4psStvKD&#xA;Gx9/3zCvtir6Z/Kq+ub/APLLypeXXL6xPpFk8rP1ZjbpV/8AZfaxVlOKuxV2KuxV2KuxV2KuxV2K&#xA;uxV2KuxV2KuxV2Ksf87eQvKvnXR20nzHYJeWxqYXPwywuRTnFIPiRvl171GKvm3zT/zhHqAunk8q&#xA;+YYXtWJKW+po6OgrsDNAsgf5+muKvL/N/wCRsfkh+Hm7zjo1vOCP9x+mm4vr4jav7gx24TY1HqOo&#xA;PjiqS6F+Ydp5OuPrPkzTkj1ZaiPzBqax3V0laitvAQbeCoNDUSN4PQ0xVj3mLzb5n8yXf1vX9Vut&#xA;UnH2HupXk4jwQMaKPZRiqVIjOwRAWdiAqgVJJ6ADFXuv5Yf84medPM6Raj5lc+XNHkAdI5F5Xsqm&#xA;v2YSR6XTrJv34kYq+qvy/wDyg8geQ4Avl/TES8pxl1Oekt2/jWVh8IP8qBV9sVZnirsVdirHPzH8&#xA;qDzZ5E1zy6GCyajaSRQOeizAc4WPsJFUnFXx9/zjd+Ziflp571HQfM4ax03U3FpqDS7fVLy2dlRp&#xA;K/ZUFmR/DY9Bir7ihmimiSaF1kikUPHIhDKysKhlI2IIxVSv9QsdOsp76/uI7WytkMlxcTMEjRFF&#xA;SzM1AAMVfCP5s+bb786PzftbHy5G0tozJpeiKwK8owxaS4cdVBLM5qNkAr0xV90aJpNro+jWGkWg&#xA;pa6dbQ2kA/4rgjEa/guKo3FXYq7FXYq7FXYq7FXYq7FXYq7FXYq7FXYq7FUp81ea9A8qaHca5r12&#xA;llp1qKvK1SSx+yiKKs7t2UYq+O/zS/5y084+ZGn07yrz8vaK1U9dCPr8qbbtKK+j06R79uRxV4RL&#xA;LJLI0srmSRyWd2JLEnckk9cVWYqyLyL5B8z+eNdj0by9aG5uWHKaU/DFDHWhkmfoqj8egqcVfbX5&#xA;Qf8AOOvk/wDL+KK/nVdX8zUBfU5l+CFu4tozXh/rfaPiOmKvWMVdirsVdirsVdirwz89/wDnGqx8&#xA;9zv5g8vSxab5n40uFkBFvecRRfUKglJANg9DXofEKvArXT/+coPy4VtM0+31u1skJCx2sbX9mN+s&#xA;fFbiFeXtQ4q3N5R/5yY/NCaK21e21a4tAwYNqYNjZp/xZwkEMbU8UUtir6T/ACM/5x90f8t7dtRv&#xA;ZU1PzTcpwmvVUiKBD9qK3DfFQ/tOd28ANsVeuYq7FXYq7FXYq7FXYq7FXwwP+cWfz4p/vPEPb6/H&#xA;/wA1Yq7/AKFZ/Pj/AHxF/wBJ8f8AzVirv+hWfz4/3xF/0nx/81Yq7/oVn8+P98Rf9J8f/NWKu/6F&#xA;Z/Pj/fEX/SfH/wA1Yq7/AKFZ/Pj/AHxF/wBJ8f8AzVirv+hWfz4/3xF/0nx/81Yq7/oVn8+P98Rf&#xA;9J8f/NWKsD/Mf8u/O/kW8tLDzUoSW8jM9uqTidSqtwJqpIBrirDsVdir0Pyl+QP5s+ardbvTdAmi&#xA;snUPHdXpW1jcHoU9Yozg+KgjFWMeaPL+ueT/ADDe+X9QlWLULJlS6W2l5oGKhwOa7EgNv4dMVSv9&#xA;IX//AC0y/wDBt/XFWVeQ/I/nDz1eyWHl+9hk1BAXFlPdiCV1AqWjWQjmB341p3xVnf8A0Kz+fH++&#xA;Iv8ApPj/AOasVd/0Kz+fH++Iv+k+P/mrFXf9Cs/nx/viL/pPj/5qxV3/AEKz+fH++Iv+k+P/AJqx&#xA;V3/QrP58f74i/wCk+P8A5qxV3/QrP58f74i/6T4/+asVd/0Kz+fH++Iv+k+P/mrFXf8AQrP58f74&#xA;i/6T4/8AmrFXf9Cs/nx/viL/AKT4/wDmrFXf9Cs/nx/viL/pPj/5qxV3/QrP58f74i/6T4/+asVd&#xA;/wBCs/nx/viL/pPj/wCasVd/0Kz+fH++Iv8ApPj/AOasVd/0Kz+fH++Iv+k+P/mrFXf9Cs/nx/vi&#xA;L/pPj/5qxV3/AEKz+fH++Iv+k+P/AJqxVx/5xZ/Pin+88R9vr8f/ADVir7nxV2KuxV2KuxV2KuxV&#xA;2KvOvzs/JrS/zN8vw2klx9R1fT2eTTL7jzVWcAPHIuxMb8RWm4IB9iq+e7L/AJwl8+vdBb3XtKgt&#xA;OQBlh+sTSce59NooVr7c/pxV7h+Wv/ONP5deSXjvXgOua1GQy6hfqrLGw7wwD4E8QTyYdmxV6zir&#xA;4S/5yp8g6h5c/My71koz6T5jY3lrcdhNQCeIn+ZW+If5LDFXjGKq1pd3VncxXVpM9vcwMHhniYo6&#xA;OpqGVloQRir6e/KL/nL+WBYNH/MRTLGOMcfmCBKuB0rcwoPip/PGK/5JO+KvqDQvMWheYNPTUdE1&#xA;CDUbKQDjPbSLItSK8W4n4WFd1O4xVMMVdirsVdirsVdirsVdirsVdirsVdirsVdirsVdirsVdirs&#xA;VdirsVdirsVdirsVdirsVY/568i+XfO3l240HXrcTWkwrHIKCWGUD4ZYm34utfp6GoJGKvif8z/+&#xA;cafzB8l3E1zZWr69oKktHqFkheREH+/4F5OhA6sKr74q8kZSpKsKEbEHqDirWKpt5a81+ZPLGpLq&#xA;Xl/UZ9NvV/3bA5XkB+y6/Zdf8lgRir6F8j/85qavbLHa+dNIW/jFA2o6eRDNSu5aB/3bmn8rIMVe&#xA;4eVf+civyg8xhFt9fhsLl9vqupVtHB8OclIjX/Jc4q9Etbq1u7dLi1mS4t5BWOaJg6MPFWUkHFVX&#xA;FXYq7FXYq7FXYq7FXYq7FXYq7FXYq7FXYq7FXYq7FXYq7FXYq7FXYq7FXYq7FXYqwvzp+TX5a+cg&#xA;765ocEl49SdQgH1e65H9oyxcWelNudR7Yq8K82/84SAs83lLzCFBJ4WeqIaAf8xEAP8AyaxV4/5i&#xA;/wCccvzk0Nj63lye+i34y6cVvAaf5EJaQfSoxV59faXqenyenf2k1pIDQpPG8bV+TgeGKoXFUw0j&#xA;zBr2jTifSNSutOmB5CS1mkhao71jK4q9A0P/AJyX/OjSAFTzC97F3jvoormv+zdfV/4bFXoGif8A&#xA;OaX5gExx3vl2w1FloJPqvrwOwBoT9qcAn/VpXtir1Dyp/wA5P3WtTiK4/LzzClV5FtOgbUKUIBJH&#xA;C3PEE9cVe22F4l7ZQXcccsSTosixTxvDKoYV4vHIFdGHcEYqr4q7FXYq7FXYq7FXYq7FXYq7FXYq&#xA;7FXYq7FXYq7FXYq7FXYq7FXYq7FXYq7FXYqsmhhnieGaNZYpAVeNwGVgeoIOxxVJZ/IXka4Nbjy7&#xA;pkxqWrJZ27bnqd0OKqX/ACrf8u/+pW0j/pAtv+qeKq8HkbyVb8fQ8v6bFw3ThZwLT5UTFU3t7a3t&#xA;oVgt4khhTZIo1CKKmuyigGKqmKuxV2KuxV2KuxV2KuxV2KuxV2KuxV2KuxV2KuxV2KuxV2KuxV2K&#xA;uxV2KuxV2KuxV2KuxV2KuxV2KuxV2KuxV2KuxV2KuxV2KuxV2KuxV2KuxV2KuxV2KuxV2KuxV2Ku&#xA;xV2KuxV2KuxV2KuxV2KuxV2KuxV2KuxV2KuxV2KuxV2KuxV2KuxV2KuxV2KuxV2KuxV2KuxV2Kux&#xA;V86/85K/85C675M1SLyn5UMcOqtAtxf6k6CRoRJX044kcFORUcixBFCO+KvGvI3/ADlV+aPl6/Rt&#xA;Wvf8RaWz8rizvOIloacvSuFXmhoNq8lH8uKvszyB5/8ALnnvy5Dr2gzGS2kJjmhkAWaCZQC0Uqgm&#xA;jCo70I3G2KsE/OX/AJyO8s/lzdLpENq2s+YiFklsEf0Y4Y3FQZpuL0Zl3VVUmm5oKVVY35N/5zK8&#xA;jaxfRWev6bceXzMQq3RkW6tlY/78dVidR78D70xV7/b3Fvc28VxbypNbzIskM0bB0dHFVZWFQQQa&#xA;gjFV+KuxV2KuxV2KuxV2KuxV2KuxV2KuxV2KuxV2KuxV2KuxVLf8T+Wv+rtZ/wDSRF/zVirv8T+W&#xA;v+rtZ/8ASRF/zVirv8T+Wv8Aq7Wf/SRF/wA1Yq7/ABP5a/6u1n/0kRf81Yq7/E/lr/q7Wf8A0kRf&#xA;81Yq7/E/lr/q7Wf/AEkRf81Yq7/E/lr/AKu1n/0kRf8ANWKoy1vLO8i9a0njuISSPUidXWo6iqkj&#xA;FXwn/wA5ZW8kX52aq7fZnt7ORPkLdE/WhxV47ir0z8g/zZufy786RTzyMfL2pFLfWbcVKhK0ScL/&#xA;ADwlif8AV5DviqU/nXdfW/zY803InW5im1CV4J425o8JP7oqw2I9PjSm2KsJxV7p/wA46/8AOQVz&#xA;5JvovLfmKdpfKFy5CStV2sZH/bQCpMTN9te32hvUMq+zV80+WHUOmr2TKwqrC4iIIPQg8sVb/wAT&#xA;+Wv+rtZ/9JEX/NWKu/xP5a/6u1n/ANJEX/NWKu/xP5a/6u1n/wBJEX/NWKoiz1bSr5mSyvILp0FX&#xA;WGVJCB4kKTiqKxV2KuxV2KuxVC3mraVYsqXt5Bau4qizSpGSPEBiMVQ/+J/LX/V2s/8ApIi/5qxV&#xA;3+J/LX/V2s/+kiL/AJqxV3+J/LX/AFdrP/pIi/5qxV3+J/LX/V2s/wDpIi/5qxV3+J/LX/V2s/8A&#xA;pIi/5qxV3+J/LX/V2s/+kiL/AJqxV3+J/LX/AFdrP/pIi/5qxV8Vf9CgfnF/vrT/APpKH/NOKu/6&#xA;FA/OL/fWn/8ASUP+acVd/wBCgfnF/vrT/wDpKH/NOKu/6FA/OL/fWn/9JQ/5pxV3/QoH5xf760//&#xA;AKSh/wA04q7/AKFA/OL/AH1p/wD0lD/mnFXf9CgfnF/vrT/+kof804q7/oUD84v99af/ANJQ/wCa&#xA;cVYt+Yf5D/mD5A0eHV9fgg+oTTi2EttMJeMjKzKHFBQEId8Ved4q7FUV+jL39GfpQRE2Pr/VmmG4&#xA;WXhzCt4FlqV8aHwOKoXFXYqy78ufyv8AM35hahd6d5ea2N5Zwi4kiuJfSJiLBCy7NXizKD8xirP/&#xA;APoUD84v99af/wBJQ/5pxV3/AEKB+cX++tP/AOkof804q7/oUD84v99af/0lD/mnFXf9CgfnF/vr&#xA;T/8ApKH/ADTirv8AoUD84v8AfWn/APSUP+acVd/0KB+cX++tP/6Sh/zTirv+hQPzi/31p/8A0lD/&#xA;AJpxV3/QoH5xf760/wD6Sh/zTirv+hQPzi/31p//AElD/mnFXf8AQoH5xf760/8A6Sh/zTirv+hQ&#xA;Pzi/31p//SUP+acVd/0KB+cX++tP/wCkof8ANOKu/wChQPzi/wB9af8A9JQ/5pxV3/QoH5xf760/&#xA;/pKH/NOKu/6FA/OL/fWn/wDSUP8AmnFXf9CgfnF/vrT/APpKH/NOKu/6FA/OL/fWn/8ASUP+acVf&#xA;c+KuxV2KuxV2KuxV2KuxVjf5i+SrHzr5L1Xy3d0UX0JEExFfSnT44ZOh+zIoJ9tsVfm1q2l3+k6p&#xA;d6XqETQX1jM9vcwsKFZI2KsPvGKoTFXrv/OPmlWHm2fzL+Xl/IIk8xWHr6dKw5enqNg3qQSDYkUj&#xA;eTlTqtRirzHXdE1PQtZvNG1SA22oWErQXMLfsuhoaHuD1BHUb4qgMVZd+VHnmbyR5+0jzEhJt7aY&#xA;JfRrQl7WX4JlAPfgSV9wMVfpFb3EFzbxXFvIssEyLJDKhqrI4qrKR1BBxVUxV2KuxV2KuxV2KuxV&#xA;2KuxV2KuxV2KuxV2KuxV2KuxV2KuxV2KuxV2KuxV2KuxV8m/85iflS0N1D+YWlQ/uZ+FtryoNlkF&#xA;FguD/rikbe4X+bFXy7irJ/yx80t5V/MHQNf5lIrG8ia5Knifq7n05xX/AConYYq+rf8AnKL8jm81&#xA;aY3nDy/By8w6bF/p1sg+K7tkH7NOssQ6fzLt1CjFXxYQQaHrirWKvub/AJxM/ME+Zfy4XRbuXnqf&#xA;lpltG5ElmtHBNq2/ZQrRj2QYq9uxV2KuxV2KuxV2KuxV2KuxV2KuxV2KuxV2KuxV2KuxV2KuxV2K&#xA;uxV2KuxV2KuxVA67omma7o95o+qQLcaffxNBcwsKgo4pt4EdQex3xV+cf5m+QdS8h+c7/wAuX1XF&#xA;u3OzuSKCe2feKUfMbN4MCO2KsVxV+jX5G+aB5l/Kjy3qbOrTraLaXVDU+raEwOW8C3p8qe+Kvn7/&#xA;AJyk/INdMkuPPvle3C6dK3PXNPiFBBIx3uY1A/u2P2x2Y16E8VXzNir07/nHT8wP8Gfmfp1xcS+n&#xA;pWqH9HalU0UJOQI5GrsPTlCsT/LXFX6DYq7FXYq7FXYq7FXYq7FXYq7FXYq7FXYq7FXYq7FXYq7F&#xA;XYq7FXYq7FXYq7FXYq7FXh//ADlX+Vo81+SD5gsIuWt+XEeccR8Utn9qePYVJSnqL8j44q+G8VfY&#xA;f/OEvmJrnynr/l92BOnXkd3ED9rhdx8SOvQNb1+nFX0dPBBcQSQTxrLBKpSWJwGR0YUZWU7EEbEH&#xA;FXwf/wA5GfkpL+X3mIajpcbN5U1Z2Nk+5+rzbs1s5+W8ZPVfdTirx7FX6H/kB57k86flfpWpXLl9&#xA;SswdP1JzUlp7YAcySTVpIyjt7nFXouKuxV2KuxV2KuxV2KuxV2KuxV2KuxV2KuxV2KuxV2KuxV2K&#xA;uxV2KuxV2KuxV2KtOiupRwGRgQykVBB6gjFX51/np+X3+BfzI1PR4IymmTEXmlEggfVp6lVBPX03&#xA;DR1/ycVegf8AOF+sLa/mZqGnOTx1HTJBGB0MkEscgr/sOeKvtXFUm84+UtF83eW77y9rMXq2F9GU&#xA;emzow3SSMno6MAynFX5x+e/JmreTPNeoeXNUX/SbGTisoBCSxN8UcqV/ZdCD+HXFXvP/ADhP5uW2&#xA;1/XPKk70TUIUvrNSdvVtzwlVR4skgPyTFX15irsVdirsVdirsVdirsVdirsVdirsVdirsVdirsVd&#xA;irsVdirsVdirsVdirsVdirsVfNv/ADmt5SjuvK+i+aYkH1jTbk2VywG5guVLISfBJI6D/WxV4T/z&#xA;jdrH6K/OnyzMd0uZpLN1rxr9aheFex6O6n6MVfoRirsVfPP/ADmB+WS6z5Wh86WEVdS0Ienf8RvJ&#xA;Yu3U/wDGGRuX+qzeGKvlv8rvNz+UPzB0LzCGKw2V0n1qnU28n7ucfTE7Yq/SlHV1DoQyMAVYGoIP&#xA;Qg4q3irsVdirsVdirsVdirsVdirsVdirsVdirsVdirsVdirsVdirsVdirsVdirsVdirFvzT8q/4r&#xA;/LvzBoAUtNe2cn1ZRvW4ipLB1/4tRcVfnZ5S1WXRfNujaqp9OTTr+3uanahhmV96/wCr3xV+nmKu&#xA;xVQv7C01CwubC9iE1ndxPBcwtWjxSqUdTSh3U0xV+bP5l+SbryT541by3ccmWymP1WZhQy27/HDJ&#xA;tUfFGRXwO2Kvuf8A5x784DzT+U2hXjvyu7KL9HXu1D6tp+7BPu8YR/pxV6NirsVdirsVdirsVdir&#xA;sVdirsVdirsVdirsVdirsVdirsVdirsVdirsVdirsVdirsVfnP8Ann5VHlf81vMelxxiO1N011aI&#xA;v2RDdgToq+yCTj9GKvvn8v8AVf0v5E8u6oZPVa9020nd68iXeBWep8Q1a++Kp/irsVfNn/OZX5cN&#xA;qOhWXnmxjLXOk0tNTCjc2kr/ALuT/nnK1Pk/tirH/wDnCXzd6eo6/wCUpm+G4jTU7MFqAPERDOAv&#xA;csrxn5L9yr6zxV2KuxV2KuxV2KuxV2KuxV2KuxV2KuxV2KuxV2KuxV2KuxV2KuxV2KuxV2KuxV2K&#xA;vkX/AJzb8sLBr3l7zNEqgX1vJYXJUUPO2b1I2Y9yyzEfJcVe2f8AONN99d/JHyxIW5NFFPAwrUj0&#xA;bqWMA9f2VGKvTsVdiqC1vR7DWtHvdI1CP1bHUIJLa5j8Y5VKNTwNDtir4O/LyO//AC0/5yF07Tb6&#xA;QI2n6qdMupTsjwXRMAl3p8LRyiQV9sVff2KuxV2KuxV2KuxV2KuxV2KuxV2KuxV2KuxV2KuxV2Ku&#xA;xV2KuxV2KuxV2KuxV2KuxV49/wA5XeXP0z+TmoXCis2jTwahGKVJCt6Mm/akczH6MVQn/OIErP8A&#xA;k5EppSLULpFp4Eq2/wBLYq9sxV2KuxV8j/8AOZvkmWw17R/PVihRLwLZX0q1+G5gBeByfFowV/2G&#xA;KvqPynria95X0jXF401Oyt7uifZBmiVyorU7FqYqmuKuxV2KuxV2KuxV2KuxV2KuxV2KuxV2KuxV&#xA;2KuxV2KuxV2KuxV2KuxV2KuxV2Kpb5l0aLXPLuqaLLQR6laT2jltwBPG0dfo5Yq8c/5w5jeD8sNS&#xA;tZQVntdcuoZ0P7LrBb1H44q91xV2KuxVh/5u+Rk87/l7rHl4KDdzwmXT2NBxuof3kO5px5MvEn+U&#xA;nFWKf84s61JqX5OabbTIUuNHnudOmB61jkMigg/ZokqrT2xV63irsVdirsVdirsVdirsVdirsVdi&#xA;rsVdirsVdirsVdirsVdirsVdirsVdirsVdirsVee/lN5fm0HVPP9iEjWzl8yzXtt6dQf9NsrW5Ze&#xA;NAAq+qoFO9e1MVehYq7FXYq7FXnH5b+W77y3598/WK200WhaneW2s6XKUYQNNdxEXqo1OHJZY1qO&#xA;tKYq9HxV2KuxV2KuxV2KuxV2KuxV2KuxV2KuxV//2Q==</xapGImg:image>
               </rdf:li>
            </rdf:Alt>
         </xap:Thumbnails>
      </rdf:Description>
      <rdf:Description rdf:about=""
            xmlns:xapMM="http://ns.adobe.com/xap/1.0/mm/"
            xmlns:stRef="http://ns.adobe.com/xap/1.0/sType/ResourceRef#">
         <xapMM:DerivedFrom rdf:parseType="Resource">
            <stRef:instanceID>uuid:D06227D0A2BADC11828F907C0EB444D3</stRef:instanceID>
         </xapMM:DerivedFrom>
         <xapMM:InstanceID>uuid:0910B316AEBADC11828F907C0EB444D3</xapMM:InstanceID>
         <xapMM:DocumentID>uuid:D16227D0A2BADC11828F907C0EB444D3</xapMM:DocumentID>
      </rdf:Description>
      <rdf:Description rdf:about=""
            xmlns:xapTPg="http://ns.adobe.com/xap/1.0/t/pg/"
            xmlns:stDim="http://ns.adobe.com/xap/1.0/sType/Dimensions#"
            xmlns:xapG="http://ns.adobe.com/xap/1.0/g/">
         <xapTPg:HasVisibleOverprint>False</xapTPg:HasVisibleOverprint>
         <xapTPg:HasVisibleTransparency>False</xapTPg:HasVisibleTransparency>
         <xapTPg:NPages>1</xapTPg:NPages>
         <xapTPg:MaxPageSize rdf:parseType="Resource">
            <stDim:w>612.000000</stDim:w>
            <stDim:h>792.000000</stDim:h>
            <stDim:unit>Points</stDim:unit>
         </xapTPg:MaxPageSize>
         <xapTPg:PlateNames>
            <rdf:Seq>
               <rdf:li>Cyan</rdf:li>
               <rdf:li>Magenta</rdf:li>
               <rdf:li>Yellow</rdf:li>
               <rdf:li>Black</rdf:li>
            </rdf:Seq>
         </xapTPg:PlateNames>
         <xapTPg:SwatchGroups>
            <rdf:Seq>
               <rdf:li rdf:parseType="Resource">
                  <xapG:groupName>Default Swatch Group</xapG:groupName>
                  <xapG:groupType>0</xapG:groupType>
               </rdf:li>
            </rdf:Seq>
         </xapTPg:SwatchGroups>
      </rdf:Description>
   </rdf:RDF>
</x:xmpmeta>
                                                                                                    
                                                                                                    
                                                                                                    
                                                                                                    
                                                                                                    
                                                                                                    
                                                                                                    
                                                                                                    
                                                                                                    
                                                                                                    
                                                                                                    
                                                                                                    
                                                                                                    
                                                                                                    
                                                                                                    
                                                                                                    
                                                                                                    
                                                                                                    
                                                                                                    
                                                                                                    
                           
<?xpacket end="w"?>
	</metadata>
<g id="Layer_1" i:knockout="Off" i:layer="yes" i:dimmedPercent="50" i:rgbTrio="#4F008000FFFF">
	<g i:knockout="Off">
		<g id="surface0" i:knockout="Off">
			<path fill="none" stroke="#000000" stroke-width="0.1" stroke-miterlimit="10" d="M92.673,18.909
				c7.328-0.841,15.021,2.047,19.932,7.564c3.144,3.845,5.172,8.591,5.553,13.563c-0.288,9.036-6.312,17.82-15.075,20.547
				C92.574,64.547,79.36,59.499,74.83,49.06c-5.219-9.837,0.03-22.766,9.713-27.563C87.094,20.214,89.859,19.372,92.673,18.909z"/>
			<path d="M92.673,18.909c7.328-0.841,15.021,2.047,19.932,7.564c3.144,3.845,5.172,8.591,5.553,13.563
				c-0.288,9.036-6.312,17.82-15.075,20.547C92.574,64.547,79.36,59.499,74.83,49.06c-5.219-9.837,0.03-22.766,9.713-27.563
				C87.094,20.214,89.859,19.372,92.673,18.909z"/>
			<path fill="none" stroke="#000000" stroke-width="0.1" stroke-miterlimit="10" d="M177.135,38.548
				c5.023-0.832,9.941-2.529,15.064-2.632c-2.244,1.929-5.342,2.076-7.92,3.35c-8.854,4.167-17.787,8.167-26.679,12.256
				c-14.509,6.483-29.244,13.187-41.229,23.866C177.581,75.37,238.791,75.386,300,75.38v6.006
				c-55.371-0.046-110.743,0.063-166.114-0.054c6.704,4.635,13.077,9.913,20.809,12.813c13.716,7.326,29.189,9.873,44.278,12.775
				c5.536,0.84,11.149,1.374,16.579,2.794c0.377,0.279,1.134,0.836,1.513,1.115c-19.964,1.852-40.425,4.483-60.213-0.136
				c-9.7-2.176-19.033-5.666-28.289-9.234c-5.936-2.741-11.332-7.413-13.746-13.614c-0.863-2.167-0.154-4.446,0.618-6.513
				c-11.29-1.926-19.098,10.405-30.362,8.431c-3.691-1.018-5.874-4.702-5.986-8.394C52.725,81.394,26.362,81.374,0,81.38v-5.994
				c26.999-0.049,53.998,0.069,80.996-0.059c1.554-1.565,3.115-3.162,5.007-4.323c7.683-4.541,15.792-8.322,24.1-11.57
				C132.158,51.617,154.04,42.87,177.135,38.548z"/>
			<path d="M177.135,38.548c5.023-0.832,9.941-2.529,15.064-2.632c-2.244,1.929-5.342,2.076-7.92,3.35
				c-8.854,4.167-17.787,8.167-26.679,12.256c-14.509,6.483-29.244,13.187-41.229,23.866C177.581,75.37,238.791,75.386,300,75.38
				v6.006c-55.371-0.046-110.743,0.063-166.114-0.054c6.704,4.635,13.077,9.913,20.809,12.813
				c13.716,7.326,29.189,9.873,44.278,12.775c5.536,0.84,11.149,1.374,16.579,2.794c0.377,0.279,1.134,0.836,1.513,1.115
				c-19.964,1.852-40.425,4.483-60.213-0.136c-9.7-2.176-19.033-5.666-28.289-9.234c-5.936-2.741-11.332-7.413-13.746-13.614
				c-0.863-2.167-0.154-4.446,0.618-6.513c-11.29-1.926-19.098,10.405-30.362,8.431c-3.691-1.018-5.874-4.702-5.986-8.394
				C52.725,81.394,26.362,81.374,0,81.38v-5.994c26.999-0.049,53.998,0.069,80.996-0.059c1.554-1.565,3.115-3.162,5.007-4.323
				c7.683-4.541,15.792-8.322,24.1-11.57C132.158,51.617,154.04,42.87,177.135,38.548z"/>
			<path fill="none" stroke="#000000" stroke-width="0.1" stroke-miterlimit="10" d="M78.652,147.393
				c1.272-2.851,4.366-4.32,7.269-4.895c6.574,1.27,11.295,6.47,14.701,11.893c1.393,1.941,2.188,4.553,4.644,5.45
				c-0.231-3.307-1.095-6.878,0.503-9.991c1.013-2.304,3.522-3.262,5.473-4.585c3.063,0.55,6.367,0.781,8.977,2.667
				c4.63,2.967,8.029,7.354,11.729,11.323c56.006,0.297,112.035,0.041,168.051,0.127v6.006
				c-54.836-0.015-109.671-0.003-164.507-0.006c5.628,12.445,11.227,24.908,16.693,37.424c4.677,14.129,9.3,28.283,13.806,42.47
				c2.916,11.369,5.293,22.882,7.574,34.396c-0.354,0.029-1.06,0.088-1.412,0.118c-1.022-5.317-3.471-10.188-5.447-15.184
				c-3.396-8.045-6.367-16.278-10.36-24.057c-6.002-12.078-10.838-24.963-19.475-35.506c-8.078-11.115-18.267-20.611-25.387-32.426
				c-1.659-2.624-2.674-5.732-5.114-7.784c3.668,16.759,10.172,32.877,12.275,49.972c1.552,10.09,3.185,20.167,4.694,30.265
				c1.317,8.598,1.382,17.311,1.828,25.979c0.097,3.433,0.532,6.912-0.172,10.313c-4.224-19.604-9.306-39.083-15.391-58.224
				c-5.541-21.227-21.365-37.567-29.292-57.739c-26.771-0.043-53.542-0.007-80.314-0.019v-5.994
				c26.141-0.002,52.282-0.026,78.422,0.014C77.889,155.443,77.126,151.229,78.652,147.393z"/>
			<path d="M78.652,147.393c1.272-2.851,4.366-4.32,7.269-4.895c6.574,1.27,11.295,6.47,14.701,11.893
				c1.393,1.941,2.188,4.553,4.644,5.45c-0.231-3.307-1.095-6.878,0.503-9.991c1.013-2.304,3.522-3.262,5.473-4.585
				c3.063,0.55,6.367,0.781,8.977,2.667c4.63,2.967,8.029,7.354,11.729,11.323c56.006,0.297,112.035,0.041,168.051,0.127v6.006
				c-54.836-0.015-109.671-0.003-164.507-0.006c5.628,12.445,11.227,24.908,16.693,37.424c4.677,14.129,9.3,28.283,13.806,42.47
				c2.916,11.369,5.293,22.882,7.574,34.396c-0.354,0.029-1.06,0.088-1.412,0.118c-1.022-5.317-3.471-10.188-5.447-15.184
				c-3.396-8.045-6.367-16.278-10.36-24.057c-6.002-12.078-10.838-24.963-19.475-35.506c-8.078-11.115-18.267-20.611-25.387-32.426
				c-1.659-2.624-2.674-5.732-5.114-7.784c3.668,16.759,10.172,32.877,12.275,49.972c1.552,10.09,3.185,20.167,4.694,30.265
				c1.317,8.598,1.382,17.311,1.828,25.979c0.097,3.433,0.532,6.912-0.172,10.313c-4.224-19.604-9.306-39.083-15.391-58.224
				c-5.541-21.227-21.365-37.567-29.292-57.739c-26.771-0.043-53.542-0.007-80.314-0.019v-5.994
				c26.141-0.002,52.282-0.026,78.422,0.014C77.889,155.443,77.126,151.229,78.652,147.393z"/>
		</g>
	</g>
	<g i:knockout="Off">
		<path i:knockout="Off" d="M205.781,32.995c11.305,0,20.469,9.164,20.469,20.469s-9.164,20.469-20.469,20.469
			s-20.469-9.164-20.469-20.469S194.477,32.995,205.781,32.995 M205.781,38.995c-7.979,0-14.469,6.491-14.469,14.469
			s6.49,14.469,14.469,14.469s14.469-6.491,14.469-14.469S213.76,38.995,205.781,38.995L205.781,38.995z"/>
	</g>
</g>
</svg>
