<?xml version="1.0"?><svg width="301.43304" height="411.89774" xmlns="http://www.w3.org/2000/svg">

 <metadata id="metadata7">image/svg+xml</metadata>
 <g>
  <title>Layer 1</title>
  <g id="layer1">
   <g id="g3629">
    <path fill="#000000" d="m76.433037,411.897766l148.571419,0c0,0 2.295166,-31.072937 7.142883,-45.714294c4.820465,-14.559082 21.428558,-40.714294 21.428558,-40.714294l25.714294,-21.428528l8.571442,-5.714294l5.714264,-22.142883l5,-14.285706l1.428558,-7.857117l-35.714264,-16.428589l-15.714294,6.428589l-12.142853,17.857117l-11.428589,4.285706l-18.571411,7.142883l-13.571411,-7.142883l-15,14.285706l-24.285736,15.714294l-6.428558,-22.857117l-28.571434,-4.285767l-44.285721,-15.714233c0,0 -13.08078,-12.283081 -21.428574,-14.285706c-3.963089,-0.950745 -12.142853,1.428528 -12.142853,1.428528l-20.714294,24.285767l14.285721,17.142822l5,8.571411l28.571426,22.857178c0,0 11.107346,23.183167 12.857147,35.714294c2.904327,20.799194 -4.285721,62.857117 -4.285721,62.857117z" id="path2844"/>
    <path fill="#000000" d="m266.433044,241.183472l-25.714264,-41.428589l-26.428589,-30.714294l-25,-21.428528c0,0 -10.93277,-6.868713 -14.285706,-12.142883c-0.364105,-0.572754 -0.860687,-1.368469 -0.535706,-1.964294c0.567902,-1.041199 2.20813,-1.016296 3.392853,-1.071411c2.250824,-0.104675 4.699432,0.229431 6.607147,1.428589c0,0 4.170319,2.61322 6.25,3.928528c2.623657,1.659424 7.857117,5 7.857117,5l3.571442,-0.714294l-5.178558,-10.357117c-1.229126,-2.458252 -2.643341,-5.112427 -2.5,-7.857117c0.054199,-1.038147 1.25,-2.857178 1.25,-2.857178c0.479553,-1.096069 2.611725,-0.357239 3.571442,0.357178c2.633392,1.960388 1.388184,6.826782 3.75,9.107117l5.178558,5l2.857147,-1.785706l-2.857147,-15.535706l-0.357147,-5.982147c0,0 -0.758942,-3.443451 0.178589,-4.375c0.298553,-0.296692 1.25,0.178558 1.25,0.178558l0,-2.5l-0.535736,-2.321442l0,-3.035706l1.785736,-1.071411l2.857117,1.428558c0,0 4.684113,5.57373 5.892883,8.928558c0.933594,2.591187 -0.140533,5.661285 0.892822,8.214325l3.035736,7.5l2.142853,5c0,0 0.357147,5.714233 0.714294,7.321411c0.357117,1.607117 0.714294,5.892822 1.428558,6.785706c0.714294,0.892883 0.535736,4.285706 1.25,4.642883c0.714294,0.357117 6.877625,11.305969 6.877625,11.305969l44.193817,43.872559l13.214294,17.5l7.142853,12.321472l1.25,9.107117l-3.214294,12.321411l-31.785736,-14.107117z" id="path3618"/>
    <path fill="#000000" d="m23.21833,264.755005c-5,-4.643005 -17.142403,-15.713989 -17.142403,-15.713989c0,0 -6.266693,-6.614014 -6.071495,-10.715027c0.483902,-10.159973 17.499901,-25 17.499901,-25l16.071999,-21.427979c0,0 19.285004,-21.072021 20.714005,-22.5c1.427994,-1.429016 10,-14.286011 10,-14.286011l6.51799,-16.651978l6.160004,-11.562012l2.858002,-8.572021l5.535004,-8.393005c0,0 1.119995,-1.557983 1.964996,-1.606995c0.988998,-0.056 2.434006,0.619019 2.5,1.606995c0,0 0.343994,1.800018 0.177994,2.679016c-0.388992,2.066986 -2.677994,5.713989 -2.677994,5.713989l-2.5,3.75l-0.358002,6.786011l1.429001,0.356995c0,0 1.606995,-5.536011 1.606995,-6.606995c0,-1.070984 4.822006,-11.96402 4.822006,-11.96402c0,0 1.513,-4.720978 3.035004,-6.606995c0.560989,-0.694977 1.253998,-1.526978 2.14299,-1.608002c0,0 1.362,-0.441986 1.964005,-0.177979c1.167007,0.511993 2.863007,1.881989 2.322006,3.03598l-2.679001,5.71402l-3.75,10.356995l-1.785004,5.893005l-0.179001,1.963989l1.25,0.713989l2.679001,-3.927979l8.391998,-13.929016l2.858002,-6.606995c0.421997,-0.97699 0.464996,-2.402985 1.427994,-2.856995c0.719009,-0.338013 2.322006,0.53598 2.322006,0.53598c1.069,0.247009 1.867996,1.437012 2.141998,2.5c0.516998,2 -1.25,6.071014 -1.25,6.071014l-7.320999,14.106995l-4.464005,6.965027l-0.535995,2.5l2.143005,0.713989l3.213989,-3.75l10,-14.106995c0.92601,-1.307007 1.834,-2.759033 3.214005,-3.572021c0.684998,-0.402985 1.660995,-0.975983 2.322006,-0.535004c0.660995,0.440002 1.737991,0.671021 2.14299,1.428009c0.533005,0.997009 0.624008,2.450012 0,3.393005l-8.035995,12.143005l-6.606995,8.393005l-4.464005,3.927979l-3.214996,5c0,0 -1.570007,1.742981 -1.070999,2.5c0.916992,1.392029 5,0 5,0l8.507996,-5.859985c1.557999,-1.072998 3.813004,-1.403992 5.598999,-0.924988c0.828995,0.221985 2.143005,0.570007 2.143005,1.427979c0,0 0.375992,1.869019 0,2.679016c-0.624008,1.339966 -2.222,1.953979 -3.393005,2.856995c-1.960999,1.513 -4.820999,3.927979 -6.070999,4.286011c-1.25,0.356995 -10.535995,5.534973 -11.785995,6.070984c-1.25,0.536011 -8.75,4.106995 -8.75,4.106995l-10.536011,6.429016l-10.89299,12.320984l-10.178009,14.822021l-7.679001,12.5l-7.14299,15.177979l-2.143005,10.893005l1.785995,3.929016l-21.070992,23.034973l-0.715004,0.179016l0,0z" id="path3620"/>
    <path fill="#000000" d="m142.96875,274.397766c3.706512,-3.312134 -0.714417,-8.282471 -0.435944,-12.365723c-1.008759,-5.915894 -2.48056,-11.771179 -4.596191,-17.365417c-0.762756,-7.260315 0.003998,-14.596436 -0.799896,-21.867065c-0.279449,-5.586609 2.250946,-10.778198 3.292389,-16.183411c1.2836,-4.895325 3.40921,-9.572998 6.008484,-13.864868c3.529358,-3.829468 8.554047,-6.110596 13.505829,-7.477112c6.52179,-1.420288 13.307037,-1.709167 19.808319,-0.022034c5.558777,1.123108 10.470398,4.518311 14.138062,8.73175c4.517303,5.931152 7.285828,12.916077 8.998505,20.125366c1.767456,5.409668 -0.26651,11.458496 2.262817,16.747437c1.079437,5.038818 -0.106323,11.261597 -5.553253,13.125366c-4.526337,3.612427 -6.971313,9.352966 -8.232208,14.861267c-1.984955,4.726563 2.190369,10.112305 -0.532867,14.018616c-12.405334,8.131042 -24.584106,16.645813 -36.89978,24.928711c-4.104248,-2.094666 -2.383179,-7.687805 -4.748383,-11.063782c-1.968933,-4.158691 -5.111694,-7.786438 -6.215881,-12.329102z" id="path3622"/>
    <path fill="#000000" id="path3624" d="m196.187958,45.469193c0,25.111946 -20.357254,45.4692 -45.469193,45.4692c-25.111946,0 -45.469177,-20.357254 -45.469177,-45.4692c0,-25.111942 20.357231,-45.469196 45.469177,-45.469196c25.111938,0 45.469193,20.357253 45.469193,45.469196z"/>
   </g>
  </g>
 </g>
</svg>