<?xml version="1.0"?><svg width="508" height="460" xmlns="http://www.w3.org/2000/svg" xmlns:xlink="http://www.w3.org/1999/xlink">
 <metadata id="metadata2879">image/svg+xml</metadata>

 <g>
  <title>Layer 1</title>
  <g id="g4566">
   <path fill="#000000" stroke="#000000" stroke-width="1px" d="m3.79021,369.379456c-0.84703,-5.627899 1.72156,-11.255768 4.47934,-16.883667c2.35433,-3.330811 4.000159,-6.661591 8.958689,-9.992401c1.915972,-1.888123 2.769171,-4.130554 7.235861,-5.168457l8.61412,-3.790222l9.303238,-3.445648l10.681511,-8.269531l-0.689129,-3.101105l15.849983,-8.958679c2.724869,-1.04364 4.961006,-1.354218 5.857597,0.344574c1.899147,-0.635559 4.796997,-0.251312 7.580429,3.445648c1.12439,1.27478 1.67688,3.924347 2.756508,6.202148l3.790215,4.47934l1.722824,5.513062c-4.022636,3.0047 -4.991043,2.891296 -5.857597,3.790192c-2.762222,2.390564 -4.3862,4.476898 -4.823906,6.891296c-0.693291,3.330811 -1.813332,6.661591 -1.033691,9.992371l3.445641,6.202179l2.756516,3.445648l-4.134766,3.790222l-4.134781,-0.344574l-10.681511,-1.378265l-13.438019,0.689148l-13.43803,2.411926l-8.269552,4.823914l-12.748899,9.303253c-3.33079,0.389862 -6.66158,1.819855 -9.99238,-0.344543c-2.69845,-2.259247 -3.84728,-5.551575 -3.79021,-9.647827z" id="path2885"/>
   <path fill="#000000" stroke="#000000" stroke-width="1px" d="m107.84877,329.065399l-15.505417,0c0,0 -6.518616,3.254517 -8.958687,5.857605c-2.075226,2.213867 -3.70739,4.990387 -4.47934,7.924988c-0.613594,2.332611 -0.270859,4.839172 0,7.23587c0.701324,6.205566 6.48291,11.345123 6.891296,9.303223l6.202164,0c0,0 -1.778984,-6.38147 -1.722824,-9.647797c0.056534,-3.288483 0.657829,-6.676239 2.06739,-9.647827c1.260757,-2.657837 3.160889,-5.124634 5.513039,-6.891296c2.88224,-2.164825 9.992378,-4.134766 9.992378,-4.134766z" id="path2950"/>
   <path fill="#000000" stroke="#000000" stroke-width="1px" d="m107.159637,329.409973c4.953545,-1.215057 9.028481,-0.821411 14.127151,-0.689117c9.001205,0.233521 7.723267,1.891968 11.715195,3.101074c0,0 5.62381,5.550598 8.61412,5.857605c3.201172,0.328644 6.009628,-2.927155 7.925003,-5.513031c2.226746,-3.006317 3.445648,-10.681519 3.445648,-10.681519l11.715195,3.445648l9.992386,5.513031l8.614105,4.134766l11.370636,8.95871l-8.958679,20.329315c-3.509964,5.513031 -5.544083,11.392822 -12.748901,16.539093c-7.44545,5.318146 -11.462189,5.171387 -14.47171,6.202179c-4.888931,1.674469 -9.418106,1.391113 -14.127151,1.033691c-4.917938,-0.373322 -8.78833,-4.484802 -13.09346,-6.891296c-3.146469,-1.75885 -6.066025,-3.927429 -9.303253,-5.513031c-4.21389,-2.063995 -13.09346,-5.168488 -13.09346,-5.168488l-11.02607,-6.546722l-6.891304,-4.47934l-1.722816,-10.336945c-0.53627,-3.21759 0.667595,-6.356873 2.756508,-9.647827c1.71183,-2.696869 3.613838,-5.490875 6.54673,-6.546722c0,0 5.650223,-2.374054 8.614128,-3.101074z" id="path2952"/>
   <path fill="#000000" stroke="#000000" stroke-width="1.4" stroke-miterlimit="4" d="m295.31781,249.4935c0.537079,7.810608 1.366669,11.092896 1.352448,18.928497c-0.398468,12.829865 -2.023956,25.647705 -4.47937,38.246704c-1.822876,9.353516 -4.602936,18.512756 -7.580414,27.565155c-1.999329,6.078613 -4.177582,12.122314 -6.891296,17.917389c-2.900085,6.193024 -7.61203,11.506561 -9.992371,17.917358c-1.591644,4.286652 0.853027,10.63089 -2.756531,13.438019c-3.902771,3.035217 -11.378036,2.863708 -14.816269,-0.689117l-10.336945,-10.681519c-8.709412,-8.999725 -22.739151,-15.620667 -25.153229,-27.909729c-0.588242,-2.994537 2.576431,-5.607788 3.101089,-8.614136c0.612122,-3.507477 8.576202,-22.743195 5.168472,-23.774963c-4.359818,-1.320038 -9.804489,20.988342 -12.748901,24.464111c-3.256393,3.844025 -5.998398,10.015564 -11.026077,10.336945c-5.089996,0.325348 -12.404327,-8.958679 -12.404327,-8.958679l-10.681503,-6.891327l-16.19455,-7.580414l-11.026062,-5.168488l3.101074,-8.958679l7.235855,-16.194519l5.513046,-17.228241c0.609222,-4.965393 8.574738,-7.066864 10.336945,-12.059753c0,0 3.324677,-7.654068 4.134781,-11.715225c1.237579,-6.204178 1.63533,-12.65332 1.033691,-18.951065c-0.360291,-3.771301 -2.756516,-11.026062 -2.756516,-11.026062l0.046402,-4.821396l117.820526,32.384644c-0.187683,-2.508133 -0.857666,-9.544952 -0.857666,-9.544952l-116.076523,-31.985413l-0.886337,9.06929" id="path3728"/>
   <path fill="#000000" stroke="#000000" stroke-width="1px" d="m177.79541,384.19577c0,0 10.727936,-4.706848 16.883667,-6.202179c6.497345,-1.578308 19.984756,-1.722809 19.984756,-1.722809l6.891281,-19.984772l18.261948,16.19455l10.681503,10.681519l12.748901,2.067383c0,0 -8.643875,22.059692 -17.917374,28.254303c-4.459244,2.97876 -10.495789,2.455688 -15.849976,2.756531c-5.744003,0.322754 -11.477753,-0.861359 -17.228241,-1.033691c-11.480331,-0.344116 -34.456467,0 -34.456467,0c0,0 -5.174469,-5.965393 -6.202164,-9.647827c-1.142776,-4.094696 -0.963303,-8.703888 0.344559,-12.748901c0.940872,-2.909912 5.857605,-8.614105 5.857605,-8.614105z" id="path3650"/>
   <path fill="#000000" stroke="#000000" stroke-width="1px" d="m140.582413,399.012054l4.134766,0c0,0 9.800964,-6.768036 15.160858,-9.303253c5.713257,-2.702393 17.917358,-6.202148 17.917358,-6.202148c0,0 -6.473694,7.442413 -7.580429,12.059753c-0.8871,3.700989 -0.297531,7.805206 1.033707,11.370636c1.23761,3.314697 6.202164,8.614105 6.202164,8.614105l-26.531479,5.513031c-2.002182,0.416046 -2.849823,3.256653 -4.823914,3.790222c-4.029861,1.089233 -9.583344,1.354218 -12.404327,-1.722809c-3.031006,-3.306122 -1.941483,-9.131195 -0.689133,-13.438019c1.219055,-4.192383 7.580429,-10.681519 7.580429,-10.681519z" id="path3652"/>
   <path fill="#000000" stroke="#000000" stroke-width="1px" d="m83.384666,439.670685c-2.13176,-7.443909 8.269554,-21.707581 8.269554,-21.707581l12.404327,-13.438019c0,0 6.56617,-0.156036 9.303253,-1.722839c1.978561,-1.132599 3.438889,-3.139923 4.47934,-5.168457c1.131531,-2.206116 1.722832,-7.23587 1.722832,-7.23587l7.580414,-10.681519l8.958687,4.823914l7.580429,3.790222l10.681503,-0.689148l1.033691,3.445679l-11.026062,7.580414c0,0 -4.486008,1.006531 -6.202179,2.411957c-2.637497,2.159973 -4.610306,5.326721 -5.513031,8.614105c-0.912903,3.324493 -0.553818,7.008484 0.344559,10.336945c0.44191,1.637238 0.943802,3.630646 2.411957,4.47934c3.481674,2.012695 12.059769,-0.344543 12.059769,-0.344543l-4.47934,5.168457l-9.647812,0c-1.23703,0 -2.234741,1.125397 -3.445648,1.378265c-3.599503,0.751678 -7.507683,-0.724243 -11.02607,0.344543c-6.220551,1.889679 -16.539108,10.336945 -16.539108,10.336945c0,0 -5.39296,5.98233 -8.958679,5.857605c-4.17823,-0.146118 -8.841385,-3.561188 -9.992386,-7.580414z" id="path3654"/>
   <path fill="#000000" stroke="#000000" stroke-width="1px" d="m341.463654,58.582069l6.546722,-1.033688l27.220612,-6.8913l15.849976,-1.37825l27.565186,1.033688l10.681519,1.378262l11.370636,-2.411949l21.363007,-1.722832l22.741272,-1.72282c5.541748,0.999912 17.731598,0.43557 16.19455,3.101082l-23.774963,0.689129l23.774963,-0.775269c2.49054,0.388268 1.326355,1.85849 0.86142,2.928799l-24.636383,1.378262l24.636353,-1.292122c1.437927,0.99894 1.139526,2.074329 -0.861389,3.531792l-23.861115,0.947548l23.861115,-0.861408c0.227936,2.739109 -0.113831,4.266819 -3.790222,5.857597l-25.497803,3.445652c-3.745209,1.7789 -4.403625,4.53997 -3.101074,7.924988l5.42691,3.704071c0,0 6.585907,0.354713 7.666565,2.153534c0.60318,1.004036 0.262421,2.762657 -0.689148,3.445648c-2.916534,2.09333 -10.681488,-1.378265 -10.681488,-1.378265l-18.261932,-6.54673c0,0 -7.578339,-5.859604 -12.059784,-7.235855c-1.97934,-0.607864 -4.152008,-0.634712 -6.202148,-0.344574c-9.638885,1.364113 -17.958038,8.075745 -27.565186,9.64782c0,0 -12.579102,2.491516 -18.95105,3.101082c-7.514954,0.718903 -14.700775,2.064919 -20.673889,2.06739c-5.343536,0.002197 -9.204926,2.476212 -13.438019,3.790215c-2.641724,0.820015 -5.547638,0.196869 -8.269562,0.689125c-5.865021,1.060684 -7.8526,5.167931 -10.681519,8.61412c-2.963806,-0.981216 -6.225342,-1.744118 -5.857605,-5.168472c0,0 -0.290527,-9.097626 0.689148,-12.921173c1.064331,-4.154076 2.786469,-8.119804 4.47934,-12.059776c1.348969,-3.139568 7.915558,-5.694756 7.924988,-5.685318z" id="path3656"/>
   <path fill="#000000" stroke="#000000" stroke-width="1px" d="m127.182198,32.161018c1.060356,-6.176338 -1.218216,-18.760598 -1.218216,-18.760598c-0.091904,-1.41528 1.066521,-1.74306 1.721596,-1.83723c0.563141,-0.080951 1.605896,-0.064751 1.93306,1.59359l3.532837,17.907839c0.164429,0.156462 0.895889,0.668941 2.056717,1.041132l1.719772,-0.43202c0.09761,0.097549 1.149048,-14.647821 3.8983,-22.171611c0.39563,-1.08268 1.560043,-2.42068 2.686722,-2.17715c0.881989,0.19063 1.211594,2.42079 1.211594,2.42079c0.35405,9.1005 -3.112595,17.161619 -2.680084,21.927971c0.059189,0.652098 0.903214,1.241541 1.533508,1.418871c0.672531,0.189209 1.657104,-0.896622 2.12114,-1.418871c4.046646,-4.554161 7.858597,-16.569401 10.233063,-19.491521c0,0 1.929581,-0.31818 2.601151,0.23584c0.523819,0.43215 0.480362,1.28333 0.566223,1.95695c1.003738,7.875151 -9.879791,18.765179 -7.1875,19.247879c0,0 1.156097,0.919052 1.850555,0.968422c0.722244,0.05135 2.047745,-0.72477 2.047745,-0.72477c0.305252,-0.10804 4.469482,-9.14994 8.162079,-13.400421c0.426453,-0.490881 1.405777,-0.603411 1.937271,-0.22879c0.608765,0.42909 0.606628,1.440929 0.499176,2.17794c-1.023239,7.017559 -10.4767,18.516949 -10.4767,18.516949c0,0 -3.623795,4.228222 -4.38559,6.822029c-0.480621,1.636391 0.001999,5.026882 1.705505,5.116524c0,0 10.395111,-1.318722 14.314087,1.157307c0.937012,0.592022 1.157318,1.388992 1.157318,2.49736c0,1.10836 -0.514496,2.631672 -1.583694,2.923721c-6.698868,1.829811 -22.940308,1.122002 -22.902542,1.461868l-5.847458,5.360168c0,0 -9.961197,18.919525 -14.131363,28.75c-0.84272,1.986572 -1.8218,3.965302 -2.192787,6.091103c-0.935478,5.360367 0,16.32415 0,16.32415l-4.629242,2.923729c0,0 1.550018,8.432007 2.192802,12.669495c0.565025,3.724899 1.274666,7.444763 1.461861,11.207626c0.133217,2.677994 -0.243645,8.040253 -0.243645,8.040253c0,0 -19.443275,-1.801163 -28.262718,-5.603806c-4.75956,-2.05217 -11.279663,-4.02153 -12.669487,-9.014832c-1.258194,-4.520386 3.917084,-8.534576 5.603821,-12.913147c2.188026,-5.679901 3.098579,-11.868027 5.84745,-17.298721l9.989403,-19.735168l12.913147,-20.466095l6.091095,-6.822044c0,0 -0.280869,-7.869591 0.487289,-11.694908c0.920753,-4.58519 3.139061,-8.81332 4.872879,-13.15678c0.458611,-1.14888 1.252556,-2.19183 1.461861,-3.411022z" id="path3658"/>
   <path fill="#000000" stroke="#000000" stroke-width="1px" d="m205.148315,80.158897l-1.949158,-13.887711l-12.669495,-15.593216c0,0 -0.572098,-3.861679 -0.858139,-5.792522c-0.363678,-2.45475 -1.091003,-7.364258 -1.091003,-7.364258c-1.745728,-11.78368 8.215912,-22.8632 16.080505,-27.775431c4.507111,-1.96289 11.309921,-1.18691 16.08049,0c5.423737,1.34943 12.013229,4.96646 15.593231,9.25848c1.586121,3.679939 7.286255,27.131029 5.360168,28.749998c0,0 -0.094009,2.963902 -0.974579,4.385593c-1.883606,3.041039 -0.938721,3.273499 -0.487289,6.822029c0.278809,2.19162 4.872879,10.720337 4.872879,10.720337c0,0 -17.95462,-3.15995 -23.389832,-1.461861c-6.541092,2.043594 -16.56778,11.93856 -16.56778,11.93856z" id="path3660"/>
   <path fill="#000000" stroke="#000000" stroke-width="1px" d="m117.923729,120.360168l21.440681,-6.822029l14.618637,-2.923729c0,0 6.732483,-2.468277 9.258469,-4.872879c3.006348,-2.861862 5.379974,-5.890579 8.771194,-8.283905c4.866974,-3.43483 9.498428,-3.83712 15.105927,-5.847458c4.17337,-1.496185 11.694916,-6.334747 11.694916,-6.334747c0,0 3.085602,-3.299919 5.847473,-5.360161c3.55365,-2.650879 14.661697,-11.288902 19.004227,-12.182213c7.029175,-1.445976 21.440674,1.94915 21.440674,1.94915c0,0 7.454697,-1.707199 11.207642,-2.43644c5.662048,-1.100197 11.475677,-1.460968 17.055084,-2.923721c4.671478,-1.224735 8.898163,-3.978775 13.644043,-4.872887c5.429474,-1.022888 11.042908,-0.46022 16.56781,-0.487282c8.2854,-0.040588 24.851685,0.487282 24.851685,0.487282l9.745758,-0.487282l-9.745758,15.593224l-0.974579,12.669487l2.436462,5.84745l-19.004242,0.974579l-11.207642,4.872879c0,0 0.608887,13.347115 0,19.978821c-0.407776,4.441483 -2.148712,8.70591 -2.436432,13.156776c-0.388245,6.006119 0.531158,12.027359 0.974579,18.029663c0.384613,5.206345 1.28656,10.375626 1.461853,15.593216c0.207336,6.170975 0.4216,12.40976 -0.487274,18.516953c-0.719299,4.833176 -3.350342,9.275787 -3.898315,14.131348c-0.820465,7.270401 0.974579,21.927979 0.974579,21.927979l-0.974579,19.004227l-116.461853,-31.673721l4.872879,-27.288132c0,0 2.010529,-15.153763 -2.923721,-19.491531c-5.978836,-5.256073 -15.96904,0.426361 -23.877121,-0.487289c-7.753494,-0.895767 -22.902542,-4.872879 -22.902542,-4.872879l-13.644073,-2.436432l0,-16.56781l-2.43644,-16.080505z" id="path3662"/>
   <image fill="#000000" y="151.05124" x="220.4552" id="image4562" height="33.938229" width="27.751877" xlink:href="file:///home/psychedelian/asociacion_voleibol_la_paz/logotipo_avlp/g4488.png" transform="matrix(0.9757423,-0.21892229,0.21892229,0.9757423,0,0)"/>
  </g>
 </g>
</svg>